<svg width="32" height="32" viewBox="0 0 32 32" fill="none" xmlns="http://www.w3.org/2000/svg">
<path d="M30.6667 22.6666C30.6667 27.0799 27.08 30.6666 22.6667 30.6666V28.6666C26 28.6666 28.6667 25.9999 28.6667 22.6666H30.6667ZM1.33333 9.33325C1.33333 4.91992 4.91999 1.33325 9.33333 1.33325V3.33325C5.99999 3.33325 3.33333 5.99992 3.33333 9.33325H1.33333ZM10.6667 5.75992L4.54666 11.8933C0.253327 16.1866 0.253327 23.1599 4.54666 27.4533C8.83999 31.7466 15.8133 31.7466 20.1067 27.4533L29.5333 17.9999C30.1867 17.3733 30.1867 16.3199 29.5333 15.6666C29.3785 15.5114 29.1946 15.3882 28.9921 15.3042C28.7896 15.2202 28.5725 15.1769 28.3533 15.1769C28.1341 15.1769 27.917 15.2202 27.7145 15.3042C27.5121 15.3882 27.3281 15.5114 27.1733 15.6666L21.28 21.5599L20.3333 20.6133L29.0533 11.8933C29.7067 11.2399 29.7067 10.1866 29.0533 9.53325C28.4 8.87992 27.3333 8.87992 26.6667 9.53325L18.92 17.3333L18 16.3599L27.16 7.17325C27.8133 6.51992 27.8133 5.46659 27.16 4.81325C26.5067 4.15992 25.4533 4.15992 24.8 4.81325L15.6133 13.9999L14.6667 13.0666L22 5.75992C22.6667 5.10659 22.6667 4.05325 22 3.39992C21.3333 2.74659 20.2933 2.74659 19.64 3.39992L9.47999 13.5599C10.2755 14.5861 10.6697 15.8671 10.5887 17.163C10.5077 18.4589 9.9571 19.6808 9.03999 20.5999L8.09333 19.6533C8.8424 18.9032 9.26314 17.8866 9.26314 16.8266C9.26314 15.7666 8.8424 14.7499 8.09333 13.9999L7.62666 13.5333L13.0533 8.10659C13.7067 7.45325 13.7067 6.39992 13.0533 5.74659C12.3867 5.10659 11.3333 5.10659 10.6667 5.75992Z" fill="#FFD233"/>
</svg>
